<svg class="icon" viewBox="0 0 1024 1024" version="1.1" xmlns="http://www.w3.org/2000/svg"
     width="200" height="200">
    <path d="M512 510.6176m-453.5808 0a453.5808 453.5808 0 1 0 907.1616 0 453.5808 453.5808 0 1 0-907.1616 0Z"
          fill="#6BBAFF"/>
    <path d="M965.376 523.2128l-272.4352-236.3392-85.8624-54.3232-165.5808 1.7408-115.8144 88.7296-77.312 136.4992 51.8656 62.8736-78.336 82.3808 167.3728 342.6304a453.96992 453.96992 0 0 0 122.7776 16.8448c246.272-0.0512 446.6688-196.352 453.3248-441.0368z"
          fill="#4E9CF9"/>
    <path d="M192.4096 496.7424c9.984 110.7456 76.2368 205.2608 169.984 254.7712v35.7888a21.0432 21.0432 0 0 0 21.0432 21.0432h254.5152a21.0432 21.0432 0 0 0 21.0432-21.0432v-34.4576c95.0784-49.1008 162.4576-144.3328 172.544-256.1024H192.4096zM511.6416 265.8304c18.7904 0 36.9664 2.4576 54.3232 7.0656 12.4416-14.6432 26.1632-28.2112 41.0624-40.2944a263.39328 263.39328 0 0 0-95.3856-17.8176c-139.3664 0-253.3888 107.9296-263.3216 244.7872h51.2512c9.8304-108.4416 101.1712-193.7408 212.0704-193.7408z"
          fill="#FFFFFF"/>
    <path d="M514.7648 357.9904c5.9904-15.0528 13.1584-29.5424 21.3504-43.3152a167.2192 167.2192 0 0 0-24.4224-1.792c-84.992 0-155.1872 64.2048-164.8128 146.6368h45.4656c9.2672-57.4976 59.2384-101.5808 119.3472-101.5808 1.024 0 2.048 0.0512 3.072 0.0512zM493.3632 459.52c0.7168-18.2784 2.9184-36.1984 6.7072-53.5552-28.8256 4.5568-52.1216 25.856-59.648 53.5552h52.9408zM587.2128 459.52c3.9424-73.6768 45.4656-137.5232 105.728-172.6464a266.07616 266.07616 0 0 0-39.1168-30.5664c-65.6384 44.7488-109.6704 118.8352-113.3568 203.2128h46.7456zM634.2656 459.52h45.2608c4.096-43.3152 31.1296-80.0768 68.8128-97.8944a264.15616 264.15616 0 0 0-23.5008-38.6048c-50.688 25.8048-86.4768 76.8512-90.5728 136.4992zM726.8864 459.52h48.1792c-1.3824-18.5344-4.6592-36.5568-9.6256-53.8112-20.224 10.7008-34.8672 30.464-38.5536 53.8112z"
          fill="#FFFFFF"/>
</svg>
