<svg class="icon" viewBox="0 0 1024 1024" version="1.1" xmlns="http://www.w3.org/2000/svg"
     width="200" height="200">
    <path d="M212.1 520.3a329.6 380 0 1 0 659.2 0 329.6 380 0 1 0-659.2 0Z" fill="#FFC217"/>
    <path d="M180.1 513.3a332.6 380 0 1 0 665.2 0 332.6 380 0 1 0-665.2 0Z" fill="#FFDD33"/>
    <path d="M512 909c-53.7 0-105.8-10.5-154.9-31.3-47.4-20-90-48.7-126.5-85.3-36.5-36.5-65.2-79.1-85.3-126.5C124.6 616.8 114 564.7 114 511s10.5-105.8 31.3-154.9c20-47.4 48.7-90 85.3-126.5 36.5-36.5 79.1-65.2 126.5-85.3C406.2 123.5 458.3 113 512 113s105.8 10.5 154.9 31.3c47.4 20 90 48.7 126.5 85.3 36.5 36.5 65.2 79.1 85.3 126.5C899.5 405.2 910 457.3 910 511s-10.5 105.8-31.3 154.9c-20 47.4-48.7 90-85.3 126.5-36.5 36.5-79.1 65.2-126.5 85.3-49 20.8-101.2 31.3-154.9 31.3z m0-756c-95.6 0-185.5 37.2-253.1 104.9C191.3 325.5 154 415.4 154 511s37.2 185.5 104.9 253.1C326.5 831.8 416.4 869 512 869s185.5-37.2 253.1-104.9C832.8 696.5 870 606.6 870 511s-37.2-185.5-104.9-253.1C697.6 190.2 607.7 153 512 153z"
          fill=""/>
    <path d="M490.9 217.3c-65.1 2.8-123.9 29.3-168.3 71.1-4.2 4-4.3 10.7-0.2 14.8l172.2 172.2c2.6 2.6 7 0.8 7-2.9V227.6c0.1-5.9-4.9-10.6-10.7-10.3zM700 284.4c-43.1-38.7-99.8-63.4-161.4-66.9-8.3-0.5-15.3 6.1-15.3 14.4v240.6c0 3.7 4.4 5.5 7 2.9l170.2-170c5.9-5.9 5.7-15.5-0.5-21zM289.9 321.9c-39.9 44.4-65 104.3-67.6 168.1-0.2 5.9 4.5 10.7 10.3 10.7H474c3.7 0 5.5-4.4 2.9-7L304.8 321.5c-4.2-4.2-11-4-14.9 0.4zM801.8 490c-2.6-64.2-28-124.5-68.4-169-4-4.4-10.8-4.5-14.9-0.3l-173 173.1c-2.6 2.6-0.8 7 2.9 7h243.1c5.8-0.1 10.5-5 10.3-10.8zM534.1 804.7c63.6-2.6 122-27.7 166.2-67.6 4.4-4 4.5-10.8 0.4-14.9L530.4 551.9c-2.6-2.6-7-0.8-7 2.9v239.6c-0.1 5.9 4.8 10.5 10.7 10.3zM791.2 527.5h-243c-3.7 0-5.5 4.4-2.9 7L715.7 705c4.1 4.1 10.8 4 14.8-0.2 41.3-44 67.7-102.3 71-166.4 0.3-5.9-4.4-10.9-10.3-10.9zM325.5 736.3c44.1 40.2 102.2 65.6 165.4 68.4 5.9 0.3 10.8-4.4 10.8-10.3V554.8c0-3.7-4.4-5.5-7-2.9L325.1 721.4c-4.1 4.1-4 10.9 0.4 14.9zM222.5 538.4c3.3 63.2 29.3 121.6 70.1 165.5 4 4.3 10.7 4.4 14.8 0.3l169.5-169.5c2.6-2.6 0.8-7-2.9-7H232.8c-5.9-0.2-10.6 4.8-10.3 10.7z"
          fill="#FFBC00"/>
    <path d="M469.7 369.2c3.3 8.1-0.8 40.3-0.8 40.3s-25.4-20.2-28.7-28.4c-3.3-8.1 0.6-17.4 8.7-20.7 8.3-3.2 17.5 0.7 20.8 8.8zM469.7 653.6c3.3-8.1-0.8-40.3-0.8-40.3s-25.4 20.2-28.7 28.4c-3.3 8.1 0.6 17.4 8.7 20.7s17.5-0.7 20.8-8.8zM547.4 653.6c-3.3-8.1 0.8-40.3 0.8-40.3s25.4 20.2 28.7 28.4c3.3 8.1-0.6 17.4-8.7 20.7s-17.5-0.7-20.8-8.8zM374.3 437.3c8.1 3.4 28.1 28.9 28.1 28.9s-32.2 3.8-40.3 0.4-11.9-12.7-8.6-20.8 12.7-11.9 20.8-8.5zM639.4 440.3c-8.1 3.4-28.1 28.9-28.1 28.9s32.2 3.8 40.3 0.4c8.1-3.4 11.9-12.7 8.6-20.8s-12.7-11.9-20.8-8.5z"
          fill="#FFDB27"/>
    <path d="M374.3 583.8c8.1-3.4 28.1-28.9 28.1-28.9s-32.2-3.8-40.3-0.4-11.9 12.7-8.6 20.8c3.4 8 12.7 11.8 20.8 8.5z"
          fill="#FFDB27"/>
    <path d="M645.4 583.8c-8.1-3.4-28.1-28.9-28.1-28.9s32.2-3.8 40.3-0.4c8.1 3.4 11.9 12.7 8.6 20.8-3.4 8-12.7 11.8-20.8 8.5z"
          fill="#FFDB27"/>
    <path d="M550.4 369.2c-3.3 8.1 0.8 40.3 0.8 40.3s25.4-20.2 28.7-28.4c3.3-8.1-0.6-17.4-8.7-20.7-8.2-3.2-17.5 0.7-20.8 8.8z"
          fill="#FFDB27"/>
</svg>
